<?xml version="1.0" encoding="UTF-8"?>
<svg width="234px" height="220px" viewBox="-35 -10 300 203" version="1.1" xmlns="http://www.w3.org/2000/svg" xmlns:xlink="http://www.w3.org/1999/xlink">
  <!-- Generator: Sketch 50.2 (55047) - http://www.bohemiancoding.com/sketch -->
  <title>super-logo</title>
  <desc>Created with Sketch.</desc>
  <defs>
    <linearGradient x1="50%" y1="0%" x2="50%" y2="126.536588%" id="linearGradient-1">
      <stop stop-color="#326DC2" offset="0%"></stop>
      <stop stop-color="#4E7FC6" offset="46.0214957%"></stop>
      <stop stop-color="#D8D8D8" offset="100%"></stop>
    </linearGradient>
  </defs>
  <g id="Page-1" stroke="none" stroke-width="1" fill="none" fill-rule="evenodd">
    <g id="super-logo">
      <path d="M51.3235929,85.1241738 C51.3235929,85.1241738 63.4531794,86.6024601 67.5193152,86.5976727 C71.2614216,86.5976727 76.8272673,86.754693 85.406871,80.3101686 C85.406871,80.3101686 86.6657097,87.5464953 93.9014049,92.6333706 C93.9014049,92.6333706 96.2757069,97.2166329 98.9893314,102 L146.213473,102 C146.258397,98.2650291 146.038555,94.3826124 145.410569,90.4293453 C145.410569,90.4293453 155.662889,70.9157733 149.743383,58.3005522 C149.743383,58.3005522 167.420655,53.4808026 175.048243,34.7561607 C175.048243,34.7561607 183.090666,27.7199387 178.676605,23.2869945 C178.676605,23.2869945 173.861092,14.6365297 160.19165,8.8009368 C160.19165,8.8009368 151.154201,3.57714759 149.751986,1.76471485 C149.751986,1.76471485 145.93628,-4.27098294 132.073759,5.98223529 C132.073759,5.98223529 129.667914,13.8370679 134.280789,17.2570413 C134.280789,17.2570413 141.31289,18.4682021 144.522595,12.2228251 C144.522595,12.2228251 145.12095,11.4319802 143.933799,11.0231536 C143.933799,11.0231536 146.531767,11.222301 147.945452,8.60753403 C147.945452,8.60753403 153.975835,11.0231536 156.773573,18.2680973 C159.584693,25.5187856 159.178462,26.1066534 160.789049,27.3264312 C160.789049,27.3264312 148.342124,30.7531068 145.526225,40.1992035 C145.526225,40.1992035 132.062289,42.4099311 129.855258,50.8660356 C129.855258,50.8660356 119.212,52.4697465 121.425721,42.4099311 C121.425721,42.4099311 123.234167,40.1992035 128.115633,40.4720736 C128.115633,40.4720736 130.556843,40.60803 128.784719,35.9031732 C128.620315,35.4637083 129.201465,34.9447761 129.521671,34.1529738 C129.824671,33.4301073 129.532185,33.298938 128.1921,32.1519255 C127.75337,31.7900136 128.548627,30.9675732 128.883171,30.0771546 C129.093455,29.5419459 128.1921,27.5878121 128.1921,27.5878121 C128.1921,27.5878121 130.28443,25.9477185 130.190757,25.17315 C129.981429,23.3386962 125.10761,22.3965758 124.300882,20.7507376 C123.978765,20.095849 125.117168,18.6347965 124.969969,17.9425679 C124.416539,15.3182266 121.717252,9.97380003 118.102272,7.88849706 C113.149118,5.03820006 99.6268755,4.13150499 93.7350891,16.0717314 C92.1436185,19.2935149 93.4177509,27.1004755 94.8037161,30.4275774 C96.1007886,33.580425 101.933313,42.0738699 101.933313,42.0738699 C102.207639,42.8800338 104.068656,54.6948357 93.8994933,57.6332169 C93.8994933,57.6332169 84.6546264,57.095136 77.9599356,63.2706201 C77.9599356,63.2706201 66.5778144,62.3275422 63.5009715,69.0344049 C63.5009715,69.0344049 62.7085815,57.3613041 70.072359,50.2580616 C70.072359,50.2580616 74.3506908,51.3265638 76.0931838,50.2580616 C76.0931838,50.2580616 77.432313,54.6163254 80.3753388,52.9398492 C80.3753388,52.9398492 82.4609778,53.5382487 82.7916978,51.5889024 C82.7916978,51.5889024 85.8637617,51.394542 85.2654069,48.3719061 C85.2654069,48.3719061 86.8023948,44.0864073 84.3286854,42.8819487 C84.3286854,42.8819487 84.4472094,39.1268715 81.1036875,39.2570832 C81.1036875,39.2570832 75.0188217,39.7080372 73.0048704,39.528996 C70.3820505,39.3097422 65.7643962,40.2001608 62.9570994,45.1711863 L53.1913008,58.8501225 C53.1913008,58.8501225 46.3618368,67.9706898 45.4260714,76.9562583 C45.4375413,76.9514712 42.6206862,83.6583339 51.3235929,85.1241738 Z" id="Shape" fill="#6890C9" fill-rule="nonzero"></path>
      <text id="Super" fill="url(#linearGradient-1)" font-family="GloucesterMT-ExtraCondensed, Gloucester MT Extra Condensed" font-size="144" font-style="condensed" font-weight="600">
        <tspan x="0" y="172">Super</tspan>
      </text>
    </g>
  </g>
</svg>
