<?xml version="1.0" encoding="UTF-8"?>
<svg width="79px" height="69px" viewBox="0 0 79 69" version="1.1" xmlns="http://www.w3.org/2000/svg" xmlns:xlink="http://www.w3.org/1999/xlink">
    <!-- Generator: Sketch 50.2 (55047) - http://www.bohemiancoding.com/sketch -->
    <title>super-logo</title>
    <desc>Created with Sketch.</desc>
    <defs>
        <linearGradient x1="50%" y1="0%" x2="50%" y2="126.536588%" id="linearGradient-1">
            <stop stop-color="#326DC2" offset="0%"></stop>
            <stop stop-color="#4E7FC6" offset="46.0214957%"></stop>
            <stop stop-color="#D8D8D8" offset="100%"></stop>
        </linearGradient>
    </defs>
    <g id="Page-1" stroke="none" stroke-width="1" fill="none" fill-rule="evenodd">
        <g id="Super">
            <path d="M17.1078643,28.3747246 C17.1078643,28.3747246 21.1510598,28.8674867 22.5064384,28.8658909 C23.7538072,28.8658909 25.6090891,28.918231 28.468957,26.7700562 C28.468957,26.7700562 28.8885699,29.1821651 31.3004683,30.8777902 C31.3004683,30.8777902 32.0919023,32.4055443 32.9964438,34 L48.7378243,34 C48.7527991,32.7550097 48.6795182,31.4608708 48.4701896,30.1431151 C48.4701896,30.1431151 51.8876297,23.6385911 49.9144611,19.4335174 C49.9144611,19.4335174 55.8068849,17.8269342 58.3494145,11.5853869 C58.3494145,11.5853869 61.030222,9.23997958 59.5588684,7.76233149 C59.5588684,7.76233149 57.9536975,4.87884325 53.3972168,2.9336456 C53.3972168,2.9336456 50.3847335,1.19238253 49.9173286,0.588238285 C49.9173286,0.588238285 48.6454266,-1.42366098 44.0245862,1.99407843 C44.0245862,1.99407843 43.222638,4.61235596 44.760263,5.7523471 C44.760263,5.7523471 47.1042968,6.15606737 48.1741984,4.07427503 C48.1741984,4.07427503 48.37365,3.81066006 47.9779329,3.67438452 C47.9779329,3.67438452 48.8439223,3.74076699 49.3151506,2.86917801 C49.3151506,2.86917801 51.3252783,3.67438452 52.2578577,6.08936576 C53.1948978,8.50626188 53.0594873,8.7022178 53.5963498,9.10881039 C53.5963498,9.10881039 49.4473748,10.2510356 48.5087417,13.3997345 C48.5087417,13.3997345 44.0207629,14.1366437 43.2850861,16.9553452 C43.2850861,16.9553452 39.7373333,17.4899155 40.4752404,14.1366437 C40.4752404,14.1366437 41.0780557,13.3997345 42.7052109,13.4906912 C42.7052109,13.4906912 43.5189478,13.53601 42.9282398,11.9677244 C42.8734384,11.8212361 43.067155,11.6482587 43.1738902,11.3843246 C43.2748905,11.1433691 43.177395,11.099646 42.7306999,10.7173085 C42.5844567,10.5966712 42.8495425,10.3225244 42.9610569,10.0257182 C43.0311517,9.84731529 42.7306999,9.19593737 42.7306999,9.19593737 C42.7306999,9.19593737 43.4281432,8.64923949 43.3969191,8.39105001 C43.327143,7.7795654 41.7025366,7.46552528 41.4336275,6.91691252 C41.326255,6.69861635 41.7057228,6.21159885 41.6566564,5.98085597 C41.4721796,5.10607553 40.5724173,3.32460001 39.367424,2.62949902 C37.7163728,1.67940002 33.2089585,1.37716833 31.2450297,5.35724379 C30.7145395,6.43117162 31.1392503,9.03349183 31.6012387,10.1425258 C32.0335962,11.193475 33.9777711,14.0246233 33.9777711,14.0246233 C34.0692129,14.2933446 34.6895519,18.2316119 31.2998311,19.2110723 C31.2998311,19.2110723 28.2182088,19.031712 25.9866452,21.0902067 C25.9866452,21.0902067 22.1926048,20.7758474 21.1669905,23.0114683 C21.1669905,23.0114683 20.9028605,19.1204347 23.357453,16.7526872 C23.357453,16.7526872 24.7835636,17.1088546 25.3643946,16.7526872 C25.3643946,16.7526872 25.810771,18.2054418 26.7917796,17.6466164 C26.7917796,17.6466164 27.4869926,17.8460829 27.5972326,17.1963008 C27.5972326,17.1963008 28.6212539,17.131514 28.4218023,16.1239687 C28.4218023,16.1239687 28.9341316,14.6954691 28.1095618,14.2939829 C28.1095618,14.2939829 28.1490698,13.0422905 27.0345625,13.0856944 C27.0345625,13.0856944 25.0062739,13.2360124 24.3349568,13.176332 C23.4606835,13.1032474 21.9214654,13.4000536 20.9856998,15.0570621 L17.7304336,19.6167075 C17.7304336,19.6167075 15.4539456,22.6568966 15.1420238,25.6520861 C15.1458471,25.6504904 14.2068954,27.8861113 17.1078643,28.3747246 Z" id="Shape" fill="#6890C9" fill-rule="nonzero"></path>
            <text fill="url(#linearGradient-1)" font-family="GloucesterMT-ExtraCondensed, Gloucester MT Extra Condensed" font-size="48" font-style="condensed" font-weight="600">
                <tspan x="0" y="57">Super</tspan>
            </text>
        </g>
    </g>
</svg>